<svg width="40" height="40" viewBox="0 0 40 40" fill="none" xmlns="http://www.w3.org/2000/svg">
<path d="M34 6C29.3333 1.33333 10.6667 1.33333 6 6C1.33333 10.6667 1.33333 29.3333 6 34C10.6667 38.6667 29.3333 38.6667 34 34C38.6667 29.3333 38.6667 10.6667 34 6Z" stroke="#FDC959" stroke-width="2" stroke-linecap="round" stroke-linejoin="round"/>
<path d="M18.9001 23.8334C20.9196 22.3845 22.4998 20.4063 23.4668 18.1167C22.4531 17.7191 21.5126 17.1559 20.6835 16.4501C19.6335 15.3167 19.8168 10.9667 20.9501 9.91673C22.0835 8.86673 26.4335 9.05006 27.4835 10.1834C28.0168 10.7667 33.3835 15.8334 26.1168 24.9001C18.8501 33.9667 12.7835 29.9001 12.0501 29.4667C10.7168 28.7001 9.58346 24.4667 10.3835 23.1501C11.1835 21.8334 15.3835 20.7001 16.6835 21.4834C17.5552 22.1299 18.3056 22.9255 18.9001 23.8334Z" stroke="#FDC959" stroke-width="2" stroke-linecap="round" stroke-linejoin="round"/>
</svg>
