<svg width="24" height="24" viewBox="0 0 24 24" fill="none" xmlns="http://www.w3.org/2000/svg">
<path d="M0 13C1.37766e-07 11.4241 0.310389 9.8637 0.913446 8.4078C1.5165 6.95189 2.40042 5.62902 3.51472 4.51472C4.62902 3.40041 5.95189 2.5165 7.4078 1.91344C8.86371 1.31039 10.4241 1 12 1C13.5759 1 15.1363 1.31039 16.5922 1.91345C18.0481 2.5165 19.371 3.40042 20.4853 4.51472C21.5996 5.62902 22.4835 6.95189 23.0866 8.4078C23.6896 9.86371 24 11.4241 24 13H22.3375C22.3375 11.6425 22.0701 10.2982 21.5506 9.04401C21.0311 7.78981 20.2696 6.65021 19.3097 5.69029C18.3498 4.73036 17.2102 3.96891 15.956 3.4494C14.7018 2.92989 13.3575 2.6625 12 2.6625C10.6425 2.6625 9.29821 2.92989 8.04401 3.4494C6.78981 3.96891 5.65021 4.73036 4.69029 5.69029C3.73036 6.65021 2.96891 7.78981 2.4494 9.04401C1.92989 10.2982 1.6625 11.6425 1.6625 13H0Z" fill="#FDC959"/>
<path d="M11.8611 13.016C12.2637 12.6135 12.7416 12.2941 13.2676 12.0762C13.7936 11.8583 14.3574 11.7462 14.9268 11.7462C15.4961 11.7462 16.0599 11.8583 16.5859 12.0762C17.1119 12.2941 17.5898 12.6135 17.9924 13.016C18.395 13.4186 18.7143 13.8966 18.9322 14.4226C19.1501 14.9486 19.2622 15.5123 19.2622 16.0817C19.2622 16.651 19.1501 17.2148 18.9322 17.7408C18.7143 18.2668 18.395 18.7448 17.9924 19.1473L11.8611 13.016Z" fill="#F4942F"/>
<path d="M11.8991 13.0667C11.8991 12.4973 12.0112 11.9336 12.2291 11.4075C12.447 10.8815 12.7663 10.4036 13.1689 10.001C13.5715 9.59843 14.0495 9.27908 14.5755 9.0612C15.1015 8.84332 15.6652 8.73118 16.2346 8.73118C16.8039 8.73118 17.3677 8.84332 17.8937 9.0612C18.4197 9.27908 18.8976 9.59843 19.3002 10.001C19.7028 10.4036 20.0222 10.8815 20.24 11.4075C20.4579 11.9336 20.5701 12.4973 20.5701 13.0667L11.8991 13.0667Z" fill="#470F51"/>
<path d="M5.82238 19.1474C5.4198 18.7448 5.10045 18.2669 4.88257 17.7409C4.66469 17.2148 4.55255 16.6511 4.55255 16.0817C4.55255 15.5124 4.66469 14.9486 4.88257 14.4226C5.10045 13.8966 5.4198 13.4187 5.82238 13.0161C6.22497 12.6135 6.70291 12.2942 7.22892 12.0763C7.75492 11.8584 8.31869 11.7463 8.88803 11.7463C9.45738 11.7463 10.0211 11.8584 10.5472 12.0763C11.0732 12.2942 11.5511 12.6135 11.9537 13.0161L5.82238 19.1474Z" fill="#F4942F"/>
<path d="M3.29417 13.0667C3.29417 12.4973 3.40631 11.9336 3.62419 11.4075C3.84206 10.8815 4.16141 10.4036 4.564 10.001C4.96659 9.59843 5.44453 9.27908 5.97053 9.0612C6.49654 8.84332 7.06031 8.73118 7.62965 8.73118C8.19899 8.73118 8.76276 8.84332 9.28877 9.0612C9.81477 9.27908 10.2927 9.59843 10.6953 10.001C11.0979 10.4036 11.4172 10.8815 11.6351 11.4075C11.853 11.9336 11.9651 12.4973 11.9651 13.0667L3.29417 13.0667Z" fill="#470F51"/>
<path d="M11.7594 14.3171C11.752 14.1324 12.0889 14.0525 12.1576 14.2242L14.2693 19.5033L13.3643 23.2581H8.67099C8.67099 23.2581 10.3948 21.1164 11.0176 19.5033C11.7365 17.6414 11.8118 15.6211 11.7594 14.3171Z" fill="#470F51"/>
<path d="M5.75476 6.82209C6.15734 6.41951 6.63529 6.10016 7.16129 5.88228C7.6873 5.6644 8.25106 5.55226 8.82041 5.55226C9.38975 5.55226 9.95352 5.6644 10.4795 5.88228C11.0055 6.10016 11.4835 6.41951 11.8861 6.82209C12.2886 7.22468 12.608 7.70262 12.8259 8.22863C13.0438 8.75463 13.1559 9.3184 13.1559 9.88774C13.1559 10.4571 13.0438 11.0209 12.8259 11.5469C12.608 12.0729 12.2886 12.5508 11.8861 12.9534L5.75476 6.82209Z" fill="#F4942F"/>
<path d="M11.9396 12.9531C11.537 12.5506 11.2176 12.0726 10.9998 11.5466C10.7819 11.0206 10.6697 10.4568 10.6697 9.8875C10.6697 9.31815 10.7819 8.75439 10.9998 8.22838C11.2176 7.70238 11.537 7.22444 11.9396 6.82185C12.3422 6.41926 12.8201 6.09991 13.3461 5.88203C13.8721 5.66416 14.4359 5.55201 15.0052 5.55201C15.5746 5.55201 16.1383 5.66416 16.6643 5.88203C17.1903 6.09991 17.6683 6.41926 18.0709 6.82185L11.9396 12.9531Z" fill="#F4942F"/>
</svg>
