<svg xmlns="http://www.w3.org/2000/svg" viewBox="0 0 48 48" width="20px" height="20px">
  <path fill="#EA4335" d="M24 9.5c3.5 0 6.6 1.2 9 3.6l6.4-6.4C35.9 2.9 30.3 0 24 0 14.6 0 6.4 5.4 2.5 13.2l7.5 5.8C11.7 13.1 17.3 9.5 24 9.5z"/>
  <path fill="#4285F4" d="M46.5 24.5c0-1.6-.1-3.1-.4-4.5H24v9h12.7c-.6 3.1-2.4 5.7-5.1 7.4l7.9 6.1c4.6-4.2 7.3-10.4 7.3-18z"/>
  <path fill="#FBBC05" d="M10 28.9c-1.2-3.1-1.2-6.6 0-9.7l-7.5-5.8C.9 17.1 0 20.5 0 24c0 3.5.9 6.9 2.5 9.7l7.5-5.8z"/>
  <path fill="#34A853" d="M24 48c6.3 0 11.6-2.1 15.5-5.7l-7.9-6.1c-2.2 1.5-5 2.4-7.6 2.4-6.7 0-12.3-4.6-14.3-10.9l-7.5 5.8C6.4 42.6 14.6 48 24 48z"/>
</svg>
