<svg width="96" height="24" viewBox="0 0 96 24" fill="none" xmlns="http://www.w3.org/2000/svg">
<path d="M90.2179 17.9117V6.23071H91.678V17.9117H90.2179Z" fill="#470f51"/>
<path d="M87.8376 15.3109C87.8376 15.9649 87.7387 16.4795 87.541 16.8547C87.3483 17.2298 87.0517 17.5036 86.6512 17.676C86.2507 17.8484 85.7386 17.9574 85.1151 18.003C84.4965 18.0537 83.7589 18.079 82.902 18.079C81.9236 18.079 81.0921 18.0283 80.4077 17.9269C79.7283 17.8306 79.1782 17.6304 78.7574 17.3262C78.3417 17.0169 78.0375 16.5555 77.8448 15.9421C77.6572 15.3286 77.5635 14.5098 77.5635 13.4857C77.5635 12.492 77.6547 11.6961 77.8372 11.0978C78.0248 10.4996 78.3265 10.0483 78.7422 9.74415C79.1579 9.43995 79.7029 9.23716 80.3772 9.13576C81.0566 9.03436 81.8855 8.98366 82.864 8.98366C83.9845 8.98366 84.9123 9.06225 85.6474 9.21941C86.3825 9.37658 86.9301 9.6757 87.29 10.1168C87.6551 10.5579 87.8376 11.2043 87.8376 12.056V13.9344H79.0312C79.0363 14.5834 79.0819 15.103 79.1681 15.4934C79.2543 15.8838 79.4266 16.1778 79.6852 16.3756C79.9438 16.5733 80.3291 16.7051 80.8411 16.771C81.3583 16.8319 82.0452 16.8623 82.902 16.8623C83.6727 16.8623 84.2937 16.8471 84.7652 16.8166C85.2418 16.7862 85.6018 16.7203 85.8451 16.6189C86.0935 16.5124 86.2608 16.3553 86.347 16.1474C86.4332 15.9396 86.4763 15.6607 86.4763 15.3109H87.8376ZM82.864 10.2004C82.0376 10.2004 81.3709 10.2309 80.8639 10.2917C80.362 10.3525 79.9793 10.4717 79.7156 10.6491C79.452 10.8215 79.272 11.0801 79.1757 11.4248C79.0844 11.7696 79.0363 12.2233 79.0312 12.7861H86.4383V12.056C86.4383 11.691 86.3952 11.3893 86.309 11.151C86.2279 10.9077 86.0657 10.7176 85.8223 10.5807C85.5789 10.4387 85.219 10.3399 84.7424 10.2841C84.2709 10.2283 83.6448 10.2004 82.864 10.2004Z" fill="#470f51"/>
<path d="M72.4758 17.9117C71.5835 17.9117 70.8687 17.823 70.3313 17.6456C69.7938 17.4631 69.4035 17.1437 69.1601 16.6874C68.9218 16.226 68.8027 15.5796 68.8027 14.7481V6.75545H70.2628V9.15097H75.6546V10.3525H70.2628V14.7481C70.2628 15.316 70.3135 15.7393 70.4149 16.0181C70.5214 16.297 70.7318 16.4795 71.0461 16.5657C71.3655 16.6519 71.8421 16.695 72.4758 16.695C73.0386 16.695 73.4797 16.6772 73.7991 16.6417C74.1235 16.6062 74.3618 16.5124 74.5139 16.3604C74.666 16.2032 74.7623 15.9472 74.8029 15.5923C74.8435 15.2374 74.8637 14.738 74.8637 14.0941H76.1566C76.1566 14.9357 76.1033 15.61 75.9969 16.117C75.8955 16.624 75.7104 17.0068 75.4417 17.2653C75.1781 17.5239 74.8054 17.6963 74.3238 17.7825C73.8472 17.8686 73.2312 17.9117 72.4758 17.9117Z" fill="#470f51"/>
<path d="M61.3575 18.079C60.4196 18.079 59.6262 18.0081 58.9772 17.8661C58.3334 17.7242 57.8264 17.4048 57.4563 16.9079V17.9117H55.9961V6.23071H57.4563V10.1472C57.8264 9.65542 58.3334 9.33856 58.9772 9.1966C59.6262 9.05464 60.4196 8.98366 61.3575 8.98366C62.3411 8.98366 63.1726 9.03436 63.8519 9.13576C64.5364 9.23716 65.089 9.43995 65.5098 9.74415C65.9306 10.0483 66.2373 10.4996 66.43 11.0978C66.6226 11.6961 66.719 12.492 66.719 13.4857C66.719 14.5098 66.6226 15.3286 66.43 15.9421C66.2373 16.5555 65.9306 17.0169 65.5098 17.3262C65.089 17.6304 64.5364 17.8306 63.8519 17.9269C63.1726 18.0283 62.3411 18.079 61.3575 18.079ZM65.2588 13.4857C65.2588 12.7607 65.2208 12.1802 65.1448 11.7442C65.0738 11.3082 64.9141 10.9812 64.6657 10.7632C64.4172 10.5401 64.0294 10.3906 63.5021 10.3145C62.9799 10.2385 62.2651 10.2004 61.3575 10.2004C60.5312 10.2004 59.8619 10.2385 59.3499 10.3145C58.8378 10.3906 58.4449 10.5401 58.1711 10.7632C57.8974 10.9812 57.7098 11.3082 57.6084 11.7442C57.507 12.1802 57.4563 12.7607 57.4563 13.4857C57.4563 14.2361 57.507 14.8369 57.6084 15.2881C57.7098 15.7393 57.8974 16.079 58.1711 16.3071C58.4449 16.5302 58.8378 16.6798 59.3499 16.7558C59.8619 16.8268 60.5312 16.8623 61.3575 16.8623C62.2651 16.8623 62.9799 16.8268 63.5021 16.7558C64.0294 16.6798 64.4172 16.5302 64.6657 16.3071C64.9141 16.079 65.0738 15.7393 65.1448 15.2881C65.2208 14.8369 65.2588 14.2361 65.2588 13.4857Z" fill="#470f51"/>
<path d="M52.5588 17.9117V9.63768H54.0189V17.9117H52.5588ZM52.5588 7.69084V6.23071H54.0189V7.69084H52.5588Z" fill="#470f51"/>
<path d="M45.2125 17.9117V9.15097H46.6726V10.3601C46.8349 10.1016 46.9971 9.8861 47.1593 9.71373C47.3266 9.54135 47.5421 9.40446 47.8057 9.30307C48.0744 9.20167 48.4369 9.13069 48.8932 9.09013C49.3495 9.0445 49.9503 9.02169 50.6956 9.02169V10.2461C49.6917 10.2461 48.9135 10.2816 48.3609 10.3525C47.8133 10.4235 47.4204 10.5452 47.1821 10.7176C46.9439 10.8849 46.7994 11.1181 46.7487 11.4172C46.698 11.7163 46.6726 12.0966 46.6726 12.5579V17.9117H45.2125Z" fill="#470f51"/>
<path d="M36.0715 17.9117V7.44749H30.231V6.23071H43.3721V7.44749H37.5316V17.9117H36.0715Z" fill="#470f51"/>
<path d="M13.4591 13.8601C13.4528 13.703 13.7393 13.6351 13.7977 13.7811L15.5929 18.2692L14.8236 21.4614H10.8335C10.8381 21.4557 12.2999 19.6384 12.8285 18.2692C13.4396 16.6863 13.5037 14.9687 13.4591 13.8601Z" fill="#470f51"/>
<path fill-rule="evenodd" clip-rule="evenodd" d="M16.2836 6.40881C16.7676 6.40881 17.2469 6.50411 17.6941 6.68934C18.1413 6.87457 18.5476 7.14607 18.8899 7.48832L17.2575 9.12059C17.2663 9.12053 17.275 9.12029 17.2837 9.12029C17.7678 9.12029 18.2471 9.21559 18.6943 9.40082C19.1415 9.58606 19.5478 9.85761 19.89 10.1999C20.2323 10.5421 20.5039 10.9485 20.6891 11.3957C20.8743 11.8428 20.9696 12.3222 20.9696 12.8062H18.8092C19.1274 13.1373 19.3813 13.525 19.5572 13.9497C19.7425 14.3969 19.8378 14.8762 19.8378 15.3602C19.8378 15.8443 19.7425 16.3236 19.5572 16.7708C19.372 17.2179 19.1005 17.6243 18.7582 17.9665L13.5978 12.806L13.5978 12.8062H13.572L8.41166 17.9665C8.06941 17.6243 7.79791 17.2179 7.61268 16.7708C7.42745 16.3236 7.33215 15.8442 7.33215 15.3602C7.33215 14.8762 7.42745 14.3969 7.61268 13.9497C7.7886 13.525 8.04248 13.1373 8.36072 12.8062H6.22611C6.22611 12.3222 6.32142 11.8428 6.50665 11.3957C6.69188 10.9485 6.96338 10.5421 7.30563 10.1999C7.64789 9.85761 8.05428 9.58606 8.50148 9.40082C8.94865 9.2156 9.42792 9.12029 9.91194 9.12029L8.28005 7.4884C8.62231 7.14613 9.02863 6.87457 9.47582 6.68934C9.92301 6.50411 10.4023 6.40881 10.8864 6.40881C11.3704 6.40881 11.8497 6.50411 12.2969 6.68934C12.7441 6.87457 13.1504 7.14613 13.4927 7.4884C13.5241 7.5198 13.5547 7.55188 13.585 7.58435C13.6152 7.55187 13.6458 7.51974 13.6772 7.48832C14.0195 7.14606 14.4258 6.87457 14.873 6.68934C15.3202 6.50411 15.7995 6.40881 16.2836 6.40881ZM13.5927 12.6131C13.5943 12.6435 13.5954 12.6739 13.5963 12.7043C13.5973 12.7033 13.5984 12.7023 13.5995 12.7012C13.6002 12.6754 13.6011 12.6495 13.6024 12.6236C13.5991 12.6202 13.5959 12.6166 13.5927 12.6131Z" fill="#470f51"/>
<path d="M13.6637 2.53833C15.0034 2.53833 16.33 2.80222 17.5678 3.31491C18.8056 3.82761 19.9302 4.57911 20.8776 5.52645C21.8249 6.4738 22.5764 7.59847 23.0891 8.83623C23.6018 10.074 23.8657 11.4006 23.8657 12.7403H22.4523C22.4523 11.5862 22.225 10.4434 21.7833 9.37708C21.3416 8.3108 20.6942 7.34198 19.8781 6.52589C19.062 5.70979 18.0932 5.06239 17.027 4.62073C15.9607 4.17906 14.8178 3.95171 13.6637 3.95171C12.5095 3.95171 11.3667 4.17906 10.3004 4.62073C9.23414 5.0624 8.26532 5.70979 7.44923 6.52589C6.63313 7.34198 5.98573 8.3108 5.54407 9.37708C5.1024 10.4434 4.87505 11.5862 4.87505 12.7403H3.46167C3.46167 11.4006 3.72556 10.074 4.23825 8.83623C4.75095 7.59847 5.50245 6.4738 6.44979 5.52645C7.39714 4.57911 8.52181 3.82761 9.75957 3.31491C10.9973 2.80222 12.3239 2.53833 13.6637 2.53833Z" fill="#470f51"/>
</svg>
